<svg xmlns="http://www.w3.org/2000/svg" xmlns:xlink="http://www.w3.org/1999/xlink" width="500" zoomAndPan="magnify" viewBox="0 0 375 374.999991" height="500" preserveAspectRatio="xMidYMid meet" version="1.0"><defs><clipPath id="9f1806c747"><path d="M 28.851562 7.21875 L 346 7.21875 L 346 367.96875 L 28.851562 367.96875 Z M 28.851562 7.21875 " clip-rule="nonzero"/></clipPath></defs><g clip-path="url(#9f1806c747)"><path fill="#9089fc" d="M 314.902344 7.21875 L 115.996094 7.21875 C 98.839844 7.21875 84.914062 21.152344 84.914062 38.316406 L 84.914062 181.375 L 35.1875 181.375 C 31.769531 181.375 28.972656 184.171875 28.972656 187.59375 L 28.972656 333.757812 C 28.972656 352.605469 44.324219 367.96875 63.160156 367.96875 L 314.902344 367.96875 C 332.058594 367.96875 345.984375 354.035156 345.984375 336.871094 L 345.984375 38.316406 C 345.984375 21.152344 332.058594 7.21875 314.902344 7.21875 Z M 84.914062 333.757812 C 84.914062 345.761719 75.15625 355.527344 63.160156 355.527344 C 51.164062 355.527344 41.402344 345.761719 41.402344 333.757812 L 41.402344 193.8125 L 84.914062 193.8125 Z M 221.914062 52.375 L 253.863281 52.375 C 257.28125 52.375 260.078125 55.171875 260.078125 58.59375 C 260.078125 62.015625 257.28125 64.8125 253.863281 64.8125 L 221.914062 64.8125 C 218.496094 64.8125 215.699219 62.015625 215.699219 58.59375 C 215.699219 55.171875 218.433594 52.375 221.914062 52.375 Z M 221.914062 87.828125 L 308.5 87.828125 C 311.917969 87.828125 314.714844 90.625 314.714844 94.046875 C 314.714844 97.46875 311.917969 100.265625 308.5 100.265625 L 221.914062 100.265625 C 218.496094 100.265625 215.699219 97.46875 215.699219 94.046875 C 215.699219 90.625 218.433594 87.828125 221.914062 87.828125 Z M 113.878906 103.4375 C 117.113281 90.75 125.753906 80.738281 137.003906 75.386719 C 132.964844 70.972656 130.414062 65.125 130.414062 58.65625 C 130.414062 44.910156 141.605469 33.714844 155.339844 33.714844 C 169.078125 33.714844 180.265625 44.910156 180.265625 58.65625 C 180.265625 65.125 177.71875 70.972656 173.679688 75.386719 C 185.054688 80.800781 193.816406 90.9375 196.925781 103.875 C 197.234375 105.117188 197.113281 106.425781 196.675781 107.667969 C 196.429688 108.351562 196.054688 108.976562 195.558594 109.472656 C 185.363281 120.980469 170.757812 127.570312 155.339844 127.570312 C 140.050781 127.570312 125.503906 121.101562 115.371094 109.722656 C 114.8125 109.160156 114.316406 108.414062 114.003906 107.667969 C 113.507812 106.300781 113.445312 104.808594 113.878906 103.4375 Z M 309.804688 320.882812 L 121.089844 320.882812 C 117.671875 320.882812 114.875 318.085938 114.875 314.664062 C 114.875 311.242188 117.671875 308.445312 121.089844 308.445312 L 309.742188 308.445312 C 313.164062 308.445312 315.960938 311.242188 315.960938 314.664062 C 315.960938 318.085938 313.226562 320.882812 309.804688 320.882812 Z M 309.804688 280.890625 L 121.089844 280.890625 C 117.671875 280.890625 114.875 278.09375 114.875 274.671875 C 114.875 271.25 117.671875 268.449219 121.089844 268.449219 L 309.742188 268.449219 C 313.164062 268.449219 315.960938 271.25 315.960938 274.671875 C 315.960938 278.09375 313.226562 280.890625 309.804688 280.890625 Z M 309.804688 240.898438 L 121.089844 240.898438 C 117.671875 240.898438 114.875 238.097656 114.875 234.675781 C 114.875 231.257812 117.671875 228.457031 121.089844 228.457031 L 309.742188 228.457031 C 313.164062 228.457031 315.960938 231.257812 315.960938 234.675781 C 315.960938 238.097656 313.226562 240.898438 309.804688 240.898438 Z M 309.804688 200.902344 L 121.089844 200.902344 C 117.671875 200.902344 114.875 198.105469 114.875 194.683594 C 114.875 191.261719 117.671875 188.464844 121.089844 188.464844 L 309.742188 188.464844 C 313.164062 188.464844 315.960938 191.261719 315.960938 194.683594 C 315.960938 198.105469 313.226562 200.902344 309.804688 200.902344 Z M 309.804688 160.910156 L 121.089844 160.910156 C 117.671875 160.910156 114.875 158.113281 114.875 154.691406 C 114.875 151.269531 117.671875 148.46875 121.089844 148.46875 L 309.742188 148.46875 C 313.164062 148.46875 315.960938 151.269531 315.960938 154.691406 C 315.960938 158.113281 313.226562 160.910156 309.804688 160.910156 Z M 309.804688 160.910156 " fill-opacity="1" fill-rule="nonzero"/></g></svg>